<svg width="35" height="38" viewBox="0 0 35 38" fill="none" xmlns="http://www.w3.org/2000/svg">
<g clip-path="url(#clip0)">
<path d="M17.5 0.0458984C7.83535 0.0458984 0 8.45377 0 18.8246C0 29.1954 7.83535 37.6033 17.5 37.6033C27.1646 37.6033 35 29.1954 35 18.8246C35 8.45377 27.1646 0.0458984 17.5 0.0458984ZM32.7735 17.6509H26.8892C26.8823 17.1096 26.8561 16.5692 26.8105 16.0298C26.6146 13.7738 26.0925 11.5643 25.2629 9.48073C26.6343 9.20283 27.988 8.83239 29.3159 8.37161C31.3427 11.0017 32.5518 14.2464 32.7735 17.6509ZM12.1051 9.55042C13.5287 9.81047 14.9646 9.98581 16.4062 10.0756V17.6509H10.2997C10.3061 17.1893 10.3289 16.7291 10.3681 16.2704C10.5779 13.6935 11.2752 11.4261 12.1051 9.55042ZM18.5938 3.0835C19.8763 4.44163 20.9963 5.96594 21.9276 7.6212C21.2358 7.69309 20.5374 7.74199 19.8324 7.76791C19.4223 7.78405 19.0094 7.79211 18.5938 7.79211V3.0835ZM16.4062 3.0835V7.72316C15.3471 7.65372 14.2844 7.53366 13.218 7.36299C13.4743 6.91846 13.73 6.51061 13.9747 6.14164C14.7 5.04788 15.5137 4.0248 16.4062 3.08423V3.0835ZM16.4062 19.9983V27.5743C15.1758 27.6506 13.9396 27.7912 12.6978 27.9961C11.4304 25.3099 10.6645 22.6447 10.4002 20.0005L16.4062 19.9983ZM16.4062 29.9253V34.0823C15.4767 32.8453 14.6205 31.5468 13.8428 30.1945C14.6995 30.0718 15.554 29.982 16.4062 29.9253ZM18.5938 29.852C19.0076 29.852 19.4204 29.86 19.8324 29.8762C20.3198 29.8945 20.8038 29.926 21.2844 29.9664C20.4738 31.401 19.5749 32.7761 18.5938 34.0823V29.852ZM19.911 27.5303C19.4731 27.5137 19.034 27.5051 18.5938 27.5046V19.9983H24.5998C24.346 22.5505 23.6225 25.1255 22.4294 27.7232C21.5991 27.6293 20.7596 27.5655 19.911 27.5318V27.5303ZM18.5938 17.6509V10.1431C19.0331 10.1431 19.4722 10.1346 19.911 10.1174C20.9638 10.0769 22.0031 9.98859 23.0289 9.85264C23.8976 11.8687 24.4397 14.0288 24.6319 16.2403C24.6716 16.7098 24.6944 17.18 24.7003 17.6509H18.5938ZM27.6035 6.47834C26.5073 6.8116 25.395 7.08096 24.2717 7.28524C23.8153 6.39161 23.3088 5.52859 22.7548 4.70096C22.3132 4.04077 21.8777 3.45394 21.4724 2.95C23.7424 3.60276 25.8409 4.81038 27.6035 6.47834ZM13.5276 2.95146C13.1223 3.45834 12.6868 4.04371 12.2452 4.70243C11.7671 5.41611 11.324 6.15604 10.9177 6.9192C9.89092 6.68593 8.86234 6.4067 7.83193 6.08149C9.50256 4.61718 11.444 3.5503 13.5276 2.95146ZM6.0293 7.93956C7.31901 8.38848 8.60804 8.76895 9.89639 9.08095C8.97696 11.2813 8.39966 13.6284 8.1874 16.0291C8.14183 16.567 8.11563 17.1074 8.10879 17.6502H2.22646C2.46075 14.0519 3.79783 10.6379 6.0293 7.94029V7.93956ZM2.22646 19.9983H8.20312C8.45059 22.7994 9.20368 25.6113 10.4624 28.434C8.9662 28.7748 7.4878 29.2001 6.0334 29.7082C3.80044 27.0112 2.46189 23.5971 2.22646 19.9983ZM7.83193 31.5677C9.0624 31.1765 10.2929 30.8535 11.5233 30.5987C12.3273 32.0865 13.223 33.5149 14.2044 34.8745C11.868 34.3242 9.68521 33.1914 7.83262 31.5677H7.83193ZM20.7963 34.8745C21.8533 33.4117 22.8099 31.8685 23.6585 30.2569C24.9903 30.4712 26.308 30.7765 27.6035 31.1709C25.6641 33.0053 23.3215 34.2798 20.7963 34.8745ZM29.3159 29.2776C27.808 28.7546 26.2671 28.3482 24.7051 28.0614C25.864 25.3668 26.5624 22.6791 26.8003 19.9983H32.7735C32.5518 23.4028 31.3427 26.6475 29.3159 29.2776Z" fill="white"/>
</g>
<defs>
<clipPath id="clip0">
<rect width="35" height="37.5574" fill="white" transform="translate(0 0.0458984)"/>
</clipPath>
</defs>
</svg>
