<svg width="20" height="23" viewBox="0 0 20 23" fill="none" xmlns="http://www.w3.org/2000/svg">
<g clip-path="url(#clip0)">
<path d="M19.4505 18.5845L14.8622 13.6605C14.1786 14.8015 13.2738 15.7718 12.2106 16.5055L16.7992 21.4294C17.5318 22.2153 18.7195 22.2153 19.4505 21.4294C20.1831 20.6448 20.1831 19.3703 19.4505 18.5845Z" fill="white"/>
<path d="M15.0009 8.60546C15.0009 4.16105 11.6428 0.557434 7.50098 0.557434C3.35921 0.557434 0.000976562 4.16105 0.000976562 8.60546C0.000976562 13.0499 3.35921 16.6533 7.50098 16.6533C11.6428 16.6533 15.0009 13.0499 15.0009 8.60546ZM7.50098 14.6412C4.39917 14.6412 1.87603 11.934 1.87603 8.6055C1.87603 5.27704 4.39917 2.56954 7.50098 2.56954C10.6027 2.56954 13.1261 5.27704 13.1261 8.6055C13.1261 11.934 10.6027 14.6412 7.50098 14.6412Z" fill="white"/>
<path d="M3.12512 8.60544H4.37496C4.37496 6.75646 5.77699 5.25213 7.50002 5.25213V3.91083C5.08801 3.91083 3.12512 6.01714 3.12512 8.60544Z" fill="white"/>
</g>
<defs>
<clipPath id="clip0">
<rect width="20" height="21.4614" fill="white" transform="translate(0 0.557434)"/>
</clipPath>
</defs>
</svg>
