<svg width="30" height="33" viewBox="0 0 30 33" fill="none" xmlns="http://www.w3.org/2000/svg">
<ellipse cx="15" cy="16.2881" rx="15" ry="16.096" fill="white"/>
<path d="M9.6875 13.7731C9.6875 16.9085 12.0781 19.4738 15 19.4738C17.9219 19.4738 20.3125 16.9085 20.3125 13.7731C20.3125 10.6378 17.9219 8.07245 15 8.07245C12.0781 8.07245 9.6875 10.6378 9.6875 13.7731ZM19.0625 13.7731C19.0625 16.1708 17.2344 18.1325 15 18.1325C12.7656 18.1325 10.9375 16.1708 10.9375 13.7731C10.9375 11.3755 12.7656 9.41378 15 9.41378C17.2344 9.41378 19.0625 11.3755 19.0625 13.7731Z" fill="#222222"/>
<path d="M8.8125 25.5769C10.4688 23.7996 12.6563 22.8272 15 22.8272C17.3438 22.8272 19.5312 23.7996 21.1875 25.5769L22.0781 24.6212C20.1875 22.6092 17.6719 21.4858 15 21.4858C12.3281 21.4858 9.8125 22.6092 7.92188 24.6212L8.8125 25.5769Z" fill="#222222"/>
</svg>
